<?xml version="1.0" encoding="UTF-8" standalone="no"?>
<!DOCTYPE svg PUBLIC "-//W3C//DTD SVG 1.1//EN"
 "http://www.w3.org/Graphics/SVG/1.1/DTD/svg11.dtd">
<!-- Generated by graphviz version 2.36.0 (20140111.2315)
 -->
<!-- Title: G Pages: 1 -->
<svg width="966pt" height="996pt"
 viewBox="0.00 0.00 966.00 996.00" xmlns="http://www.w3.org/2000/svg" xmlns:xlink="http://www.w3.org/1999/xlink">
<g id="graph0" class="graph" transform="scale(1 1) rotate(0) translate(4 992)">
<title>G</title>
<polygon fill="white" stroke="none" points="-4,4 -4,-992 962,-992 962,4 -4,4"/>
<g id="clust1" class="cluster"><title>cluster_Global</title>
<path fill="none" stroke="gray" d="M519,-260C519,-260 938,-260 938,-260 944,-260 950,-266 950,-272 950,-272 950,-968 950,-968 950,-974 944,-980 938,-980 938,-980 519,-980 519,-980 513,-980 507,-974 507,-968 507,-968 507,-272 507,-272 507,-266 513,-260 519,-260"/>
<text text-anchor="middle" x="728.5" y="-967.2" font-family="Times,serif" font-size="11.00" fill="gray">Global</text>
</g>
<!-- \\APIController -->
<g id="node1" class="node"><title>\\APIController</title>
<polygon fill="none" stroke="black" points="938,-844 834,-844 834,-808 938,-808 938,-844"/>
<text text-anchor="middle" x="886" y="-823.2" font-family="Courier,monospace" font-size="11.00">APIController</text>
</g>
<!-- \\BaseController -->
<g id="node15" class="node"><title>\\BaseController</title>
<polygon fill="none" stroke="black" points="626.5,-871 515.5,-871 515.5,-835 626.5,-835 626.5,-871"/>
<text text-anchor="middle" x="571" y="-850.2" font-family="Courier,monospace" font-size="11.00">BaseController</text>
</g>
<!-- \\APIController&#45;&gt;\\BaseController -->
<g id="edge1" class="edge"><title>\\APIController&#45;&gt;\\BaseController</title>
<path fill="none" stroke="black" d="M833.665,-830.428C779.838,-835.072 695.118,-842.38 636.738,-847.416"/>
<polygon fill="none" stroke="black" points="636.182,-843.95 626.52,-848.297 636.784,-850.925 636.182,-843.95"/>
</g>
<!-- \\User -->
<g id="node2" class="node"><title>\\User</title>
<polygon fill="none" stroke="black" points="913,-466 859,-466 859,-430 913,-430 913,-466"/>
<text text-anchor="middle" x="886" y="-445.2" font-family="Courier,monospace" font-size="11.00">User</text>
</g>
<!-- \\Eloquent -->
<g id="node16" class="node"><title>\\Eloquent</title>
<ellipse fill="none" stroke="black" cx="571" cy="-234" rx="44.6926" ry="18"/>
<text text-anchor="middle" x="571" y="-230.3" font-family="Times,serif" font-size="14.00" fill="gray">\Eloquent</text>
</g>
<!-- \\User&#45;&gt;\\Eloquent -->
<g id="edge2" class="edge"><title>\\User&#45;&gt;\\Eloquent</title>
<path fill="none" stroke="black" d="M858.787,-439.568C848.764,-435.293 837.865,-429.227 830,-421 774.708,-363.168 822.246,-303.688 758,-256 719.569,-227.474 663.844,-224.478 623.416,-227.084"/>
<polygon fill="none" stroke="black" points="622.925,-223.612 613.227,-227.879 623.469,-230.59 622.925,-223.612"/>
</g>
<!-- \\Illuminate\\Auth\\UserInterface -->
<g id="node17" class="node"><title>\\Illuminate\\Auth\\UserInterface</title>
<ellipse fill="none" stroke="black" cx="571" cy="-180" rx="120.479" ry="18"/>
<text text-anchor="middle" x="571" y="-176.3" font-family="Times,serif" font-size="14.00" fill="gray">\Illuminate\Auth\UserInterface</text>
</g>
<!-- \\User&#45;&gt;\\Illuminate\\Auth\\UserInterface -->
<g id="edge3" class="edge"><title>\\User&#45;&gt;\\Illuminate\\Auth\\UserInterface</title>
<path fill="none" stroke="black" stroke-dasharray="1,5" d="M858.98,-440.142C848.746,-435.91 837.641,-429.721 830,-421 763.868,-345.523 835.061,-271.278 758,-207 741.56,-193.287 721.33,-184.83 700.332,-179.834"/>
<polygon fill="none" stroke="black" points="700.817,-176.36 690.309,-177.715 699.369,-183.208 700.817,-176.36"/>
</g>
<!-- \\Illuminate\\Auth\\Reminders\\RemindableInterface -->
<g id="node18" class="node"><title>\\Illuminate\\Auth\\Reminders\\RemindableInterface</title>
<ellipse fill="none" stroke="black" cx="571" cy="-126" rx="187.367" ry="18"/>
<text text-anchor="middle" x="571" y="-122.3" font-family="Times,serif" font-size="14.00" fill="gray">\Illuminate\Auth\Reminders\RemindableInterface</text>
</g>
<!-- \\User&#45;&gt;\\Illuminate\\Auth\\Reminders\\RemindableInterface -->
<g id="edge4" class="edge"><title>\\User&#45;&gt;\\Illuminate\\Auth\\Reminders\\RemindableInterface</title>
<path fill="none" stroke="black" stroke-dasharray="1,5" d="M858.991,-440.488C848.634,-436.291 837.434,-430.036 830,-421 751.64,-325.757 850.214,-234.903 758,-153 752.465,-148.084 746.45,-143.827 740.084,-140.151"/>
<polygon fill="none" stroke="black" points="741.679,-137.036 731.197,-135.492 738.429,-143.235 741.679,-137.036"/>
</g>
<!-- \\ExampleTest -->
<g id="node3" class="node"><title>\\ExampleTest</title>
<polygon fill="none" stroke="black" points="931.5,-952 840.5,-952 840.5,-916 931.5,-916 931.5,-952"/>
<text text-anchor="middle" x="886" y="-931.2" font-family="Courier,monospace" font-size="11.00">ExampleTest</text>
</g>
<!-- \\TestCase -->
<g id="node10" class="node"><title>\\TestCase</title>
<polygon fill="none" stroke="black" points="606.5,-952 535.5,-952 535.5,-916 606.5,-916 606.5,-952"/>
<text text-anchor="middle" x="571" y="-931.2" font-family="Courier,monospace" font-size="11.00">TestCase</text>
</g>
<!-- \\ExampleTest&#45;&gt;\\TestCase -->
<g id="edge5" class="edge"><title>\\ExampleTest&#45;&gt;\\TestCase</title>
<path fill="none" stroke="black" d="M840.487,-934C781.099,-934 676.53,-934 616.931,-934"/>
<polygon fill="none" stroke="black" points="616.701,-930.5 606.701,-934 616.701,-937.5 616.701,-930.5"/>
</g>
<!-- \\UserResponse -->
<g id="node4" class="node"><title>\\UserResponse</title>
<polygon fill="none" stroke="black" points="935,-628 837,-628 837,-592 935,-592 935,-628"/>
<text text-anchor="middle" x="886" y="-607.2" font-family="Courier,monospace" font-size="11.00">UserResponse</text>
</g>
<!-- \\UserResponse&#45;&gt;\\Eloquent -->
<g id="edge6" class="edge"><title>\\UserResponse&#45;&gt;\\Eloquent</title>
<path fill="none" stroke="black" d="M839.22,-591.919C835.777,-589.307 832.627,-586.347 830,-583 738.104,-465.949 868.305,-355.893 758,-256 721.671,-223.101 663.644,-221.316 622.062,-225.411"/>
<polygon fill="none" stroke="black" points="621.411,-221.962 611.868,-226.563 622.198,-228.918 621.411,-221.962"/>
</g>
<!-- \\Error -->
<g id="node5" class="node"><title>\\Error</title>
<polygon fill="none" stroke="black" points="913,-736 859,-736 859,-700 913,-700 913,-736"/>
<text text-anchor="middle" x="886" y="-715.2" font-family="Courier,monospace" font-size="11.00">Error</text>
</g>
<!-- \\HomeController -->
<g id="node6" class="node"><title>\\HomeController</title>
<polygon fill="none" stroke="black" points="941.5,-898 830.5,-898 830.5,-862 941.5,-862 941.5,-898"/>
<text text-anchor="middle" x="886" y="-877.2" font-family="Courier,monospace" font-size="11.00">HomeController</text>
</g>
<!-- \\HomeController&#45;&gt;\\BaseController -->
<g id="edge7" class="edge"><title>\\HomeController&#45;&gt;\\BaseController</title>
<path fill="none" stroke="black" d="M830.48,-875.297C776.532,-870.643 693.95,-863.52 636.708,-858.582"/>
<polygon fill="none" stroke="black" points="636.946,-855.09 626.683,-857.717 636.345,-862.064 636.946,-855.09"/>
</g>
<!-- \\keyState -->
<g id="node7" class="node"><title>\\keyState</title>
<polygon fill="none" stroke="black" points="921.5,-520 850.5,-520 850.5,-484 921.5,-484 921.5,-520"/>
<text text-anchor="middle" x="886" y="-499.2" font-family="Courier,monospace" font-size="11.00">keyState</text>
</g>
<!-- \\keyState&#45;&gt;\\Eloquent -->
<g id="edge8" class="edge"><title>\\keyState&#45;&gt;\\Eloquent</title>
<path fill="none" stroke="black" d="M850.391,-490.218C842.865,-486.338 835.516,-481.34 830,-475 762.746,-397.704 837.317,-320.858 758,-256 720.523,-225.354 663.727,-222.913 622.758,-226.236"/>
<polygon fill="none" stroke="black" points="622.329,-222.761 612.705,-227.191 622.991,-229.729 622.329,-222.761"/>
</g>
<!-- \\keyState&#45;&gt;\\Illuminate\\Auth\\UserInterface -->
<g id="edge9" class="edge"><title>\\keyState&#45;&gt;\\Illuminate\\Auth\\UserInterface</title>
<path fill="none" stroke="black" stroke-dasharray="1,5" d="M850.423,-490.58C842.805,-486.672 835.407,-481.571 830,-475 751.64,-379.757 850.214,-288.903 758,-207 741.498,-192.343 720.731,-183.547 699.105,-178.537"/>
<polygon fill="none" stroke="black" points="699.619,-175.07 689.121,-176.494 698.216,-181.928 699.619,-175.07"/>
</g>
<!-- \\keyState&#45;&gt;\\Illuminate\\Auth\\Reminders\\RemindableInterface -->
<g id="edge10" class="edge"><title>\\keyState&#45;&gt;\\Illuminate\\Auth\\Reminders\\RemindableInterface</title>
<path fill="none" stroke="black" stroke-dasharray="1,5" d="M850.223,-490.741C842.612,-486.828 835.266,-481.685 830,-475 739.256,-359.803 865.55,-252.689 758,-153 752.774,-148.156 747.087,-143.943 741.055,-140.287"/>
<polygon fill="none" stroke="black" points="742.436,-137.052 731.983,-135.32 739.074,-143.193 742.436,-137.052"/>
</g>
<!-- \\Question -->
<g id="node8" class="node"><title>\\Question</title>
<polygon fill="none" stroke="black" points="921.5,-790 850.5,-790 850.5,-754 921.5,-754 921.5,-790"/>
<text text-anchor="middle" x="886" y="-769.2" font-family="Courier,monospace" font-size="11.00">Question</text>
</g>
<!-- \\Question&#45;&gt;\\Eloquent -->
<g id="edge11" class="edge"><title>\\Question&#45;&gt;\\Eloquent</title>
<path fill="none" stroke="black" d="M850.439,-761.302C842.632,-757.349 835.141,-752.046 830,-745 700.522,-567.537 915.529,-409.109 758,-256 722.564,-221.559 663.654,-220.255 621.627,-224.884"/>
<polygon fill="none" stroke="black" points="621.088,-221.424 611.598,-226.134 621.955,-228.37 621.088,-221.424"/>
</g>
<!-- \\Quiz -->
<g id="node9" class="node"><title>\\Quiz</title>
<polygon fill="none" stroke="black" points="913,-682 859,-682 859,-646 913,-646 913,-682"/>
<text text-anchor="middle" x="886" y="-661.2" font-family="Courier,monospace" font-size="11.00">Quiz</text>
</g>
<!-- \\Quiz&#45;&gt;\\Eloquent -->
<g id="edge12" class="edge"><title>\\Quiz&#45;&gt;\\Eloquent</title>
<path fill="none" stroke="black" d="M858.936,-656.869C848.441,-652.719 837.151,-646.395 830,-637 725.624,-499.874 883.989,-373.578 758,-256 721.983,-222.387 663.449,-220.855 621.666,-225.204"/>
<polygon fill="none" stroke="black" points="621.213,-221.733 611.694,-226.385 622.037,-228.684 621.213,-221.733"/>
</g>
<!-- \\Illuminate\\Foundation\\Testing\\TestCase -->
<g id="node19" class="node"><title>\\Illuminate\\Foundation\\Testing\\TestCase</title>
<ellipse fill="none" stroke="black" cx="156" cy="-934" rx="155.173" ry="18"/>
<text text-anchor="middle" x="156" y="-930.3" font-family="Times,serif" font-size="14.00" fill="gray">\Illuminate\Foundation\Testing\TestCase</text>
</g>
<!-- \\TestCase&#45;&gt;\\Illuminate\\Foundation\\Testing\\TestCase -->
<g id="edge13" class="edge"><title>\\TestCase&#45;&gt;\\Illuminate\\Foundation\\Testing\\TestCase</title>
<path fill="none" stroke="black" d="M535.498,-934C488.368,-934 400.664,-934 321.54,-934"/>
<polygon fill="none" stroke="black" points="321.439,-930.5 311.439,-934 321.439,-937.5 321.439,-930.5"/>
</g>
<!-- \\Dbconf -->
<g id="node11" class="node"><title>\\Dbconf</title>
<polygon fill="none" stroke="black" points="914.5,-358 857.5,-358 857.5,-322 914.5,-322 914.5,-358"/>
<text text-anchor="middle" x="886" y="-337.2" font-family="Courier,monospace" font-size="11.00">Dbconf</text>
</g>
<!-- \\Illuminate\\Database\\Migrations\\Migration -->
<g id="node20" class="node"><title>\\Illuminate\\Database\\Migrations\\Migration</title>
<ellipse fill="none" stroke="black" cx="571" cy="-72" rx="163.571" ry="18"/>
<text text-anchor="middle" x="571" y="-68.3" font-family="Times,serif" font-size="14.00" fill="gray">\Illuminate\Database\Migrations\Migration</text>
</g>
<!-- \\Dbconf&#45;&gt;\\Illuminate\\Database\\Migrations\\Migration -->
<g id="edge14" class="edge"><title>\\Dbconf&#45;&gt;\\Illuminate\\Database\\Migrations\\Migration</title>
<path fill="none" stroke="black" d="M857.283,-331.426C847.534,-327.221 837.22,-321.241 830,-313 763.868,-237.523 835.061,-163.278 758,-99 750.201,-92.4946 741.549,-87.172 732.366,-82.8407"/>
<polygon fill="none" stroke="black" points="733.589,-79.5568 723.019,-78.8327 730.83,-85.9904 733.589,-79.5568"/>
</g>
<!-- \\Passcode -->
<g id="node12" class="node"><title>\\Passcode</title>
<polygon fill="none" stroke="black" points="921.5,-412 850.5,-412 850.5,-376 921.5,-376 921.5,-412"/>
<text text-anchor="middle" x="886" y="-391.2" font-family="Courier,monospace" font-size="11.00">Passcode</text>
</g>
<!-- \\DatabaseSeeder -->
<g id="node13" class="node"><title>\\DatabaseSeeder</title>
<polygon fill="none" stroke="black" points="941.5,-304 830.5,-304 830.5,-268 941.5,-268 941.5,-304"/>
<text text-anchor="middle" x="886" y="-283.2" font-family="Courier,monospace" font-size="11.00">DatabaseSeeder</text>
</g>
<!-- \\Seeder -->
<g id="node21" class="node"><title>\\Seeder</title>
<ellipse fill="none" stroke="black" cx="571" cy="-18" rx="37.0935" ry="18"/>
<text text-anchor="middle" x="571" y="-14.3" font-family="Times,serif" font-size="14.00" fill="gray">\Seeder</text>
</g>
<!-- \\DatabaseSeeder&#45;&gt;\\Seeder -->
<g id="edge15" class="edge"><title>\\DatabaseSeeder&#45;&gt;\\Seeder</title>
<path fill="none" stroke="black" d="M881.316,-267.777C870.991,-221.829 837.19,-100.936 758,-45 716.933,-15.9921 657.917,-12.1223 617.438,-13.6384"/>
<polygon fill="none" stroke="black" points="617.125,-10.1496 607.312,-14.1437 617.474,-17.1409 617.125,-10.1496"/>
</g>
<!-- \\Logs -->
<g id="node14" class="node"><title>\\Logs</title>
<polygon fill="none" stroke="black" points="913,-574 859,-574 859,-538 913,-538 913,-574"/>
<text text-anchor="middle" x="886" y="-553.2" font-family="Courier,monospace" font-size="11.00">Logs</text>
</g>
<!-- \\Logs&#45;&gt;\\Eloquent -->
<g id="edge16" class="edge"><title>\\Logs&#45;&gt;\\Eloquent</title>
<path fill="none" stroke="black" d="M858.971,-548.505C848.61,-544.311 837.413,-538.053 830,-529 750.499,-431.916 852.723,-338.3 758,-256 721.229,-224.052 663.801,-221.961 622.483,-225.723"/>
<polygon fill="none" stroke="black" points="621.926,-222.263 612.348,-226.792 622.66,-229.224 621.926,-222.263"/>
</g>
<!-- \\Controller -->
<g id="node22" class="node"><title>\\Controller</title>
<ellipse fill="none" stroke="black" cx="156" cy="-853" rx="49.2915" ry="18"/>
<text text-anchor="middle" x="156" y="-849.3" font-family="Times,serif" font-size="14.00" fill="gray">\Controller</text>
</g>
<!-- \\BaseController&#45;&gt;\\Controller -->
<g id="edge17" class="edge"><title>\\BaseController&#45;&gt;\\Controller</title>
<path fill="none" stroke="black" d="M515.157,-853C437.459,-853 295.921,-853 216.011,-853"/>
<polygon fill="none" stroke="black" points="215.632,-849.5 205.632,-853 215.632,-856.5 215.632,-849.5"/>
</g>
</g>
</svg>
