<?xml version="1.0" encoding="UTF-8" standalone="no"?>
<!DOCTYPE svg PUBLIC "-//W3C//DTD SVG 1.1//EN"
 "http://www.w3.org/Graphics/SVG/1.1/DTD/svg11.dtd">
<!-- Generated by graphviz version 2.36.0 (20140111.2315)
 -->
<!-- Title: G Pages: 1 -->
<svg width="754pt" height="1050pt"
 viewBox="0.00 0.00 754.00 1050.00" xmlns="http://www.w3.org/2000/svg" xmlns:xlink="http://www.w3.org/1999/xlink">
<g id="graph0" class="graph" transform="scale(1 1) rotate(0) translate(4 1046)">
<title>G</title>
<polygon fill="white" stroke="none" points="-4,4 -4,-1046 750,-1046 750,4 -4,4"/>
<g id="clust1" class="cluster"><title>cluster_Global</title>
<path fill="none" stroke="gray" d="M307,-314C307,-314 726,-314 726,-314 732,-314 738,-320 738,-326 738,-326 738,-1022 738,-1022 738,-1028 732,-1034 726,-1034 726,-1034 307,-1034 307,-1034 301,-1034 295,-1028 295,-1022 295,-1022 295,-326 295,-326 295,-320 301,-314 307,-314"/>
<text text-anchor="middle" x="516.5" y="-1021.2" font-family="Times,serif" font-size="11.00" fill="gray">Global</text>
</g>
<!-- \\APIController -->
<g id="node1" class="node"><title>\\APIController</title>
<polygon fill="none" stroke="black" points="726,-952 622,-952 622,-916 726,-916 726,-952"/>
<text text-anchor="middle" x="674" y="-931.2" font-family="Courier,monospace" font-size="11.00">APIController</text>
</g>
<!-- \\BaseController -->
<g id="node14" class="node"><title>\\BaseController</title>
<polygon fill="none" stroke="black" points="414.5,-979 303.5,-979 303.5,-943 414.5,-943 414.5,-979"/>
<text text-anchor="middle" x="359" y="-958.2" font-family="Courier,monospace" font-size="11.00">BaseController</text>
</g>
<!-- \\APIController&#45;&gt;\\BaseController -->
<g id="edge1" class="edge"><title>\\APIController&#45;&gt;\\BaseController</title>
<path fill="none" stroke="black" d="M621.665,-938.428C567.838,-943.072 483.118,-950.38 424.738,-955.416"/>
<polygon fill="none" stroke="black" points="424.182,-951.95 414.52,-956.297 424.784,-958.925 424.182,-951.95"/>
</g>
<!-- \\User -->
<g id="node2" class="node"><title>\\User</title>
<polygon fill="none" stroke="black" points="701,-574 647,-574 647,-538 701,-538 701,-574"/>
<text text-anchor="middle" x="674" y="-553.2" font-family="Courier,monospace" font-size="11.00">User</text>
</g>
<!-- \\Eloquent -->
<g id="node15" class="node"><title>\\Eloquent</title>
<ellipse fill="none" stroke="black" cx="359" cy="-288" rx="44.6926" ry="18"/>
<text text-anchor="middle" x="359" y="-284.3" font-family="Times,serif" font-size="14.00" fill="gray">\Eloquent</text>
</g>
<!-- \\User&#45;&gt;\\Eloquent -->
<g id="edge2" class="edge"><title>\\User&#45;&gt;\\Eloquent</title>
<path fill="none" stroke="black" d="M646.95,-548.169C636.711,-543.94 625.611,-537.747 618,-529 550.746,-451.704 625.317,-374.858 546,-310 508.523,-279.354 451.727,-276.913 410.758,-280.236"/>
<polygon fill="none" stroke="black" points="410.329,-276.761 400.705,-281.191 410.991,-283.729 410.329,-276.761"/>
</g>
<!-- \\Illuminate\\Auth\\UserInterface -->
<g id="node16" class="node"><title>\\Illuminate\\Auth\\UserInterface</title>
<ellipse fill="none" stroke="black" cx="359" cy="-234" rx="120.479" ry="18"/>
<text text-anchor="middle" x="359" y="-230.3" font-family="Times,serif" font-size="14.00" fill="gray">\Illuminate\Auth\UserInterface</text>
</g>
<!-- \\User&#45;&gt;\\Illuminate\\Auth\\UserInterface -->
<g id="edge3" class="edge"><title>\\User&#45;&gt;\\Illuminate\\Auth\\UserInterface</title>
<path fill="none" stroke="black" stroke-dasharray="1,5" d="M646.991,-548.488C636.634,-544.291 625.434,-538.036 618,-529 539.64,-433.757 638.214,-342.903 546,-261 529.498,-246.343 508.731,-237.547 487.105,-232.537"/>
<polygon fill="none" stroke="black" points="487.619,-229.07 477.121,-230.494 486.216,-235.928 487.619,-229.07"/>
</g>
<!-- \\Illuminate\\Auth\\Reminders\\RemindableInterface -->
<g id="node17" class="node"><title>\\Illuminate\\Auth\\Reminders\\RemindableInterface</title>
<ellipse fill="none" stroke="black" cx="359" cy="-180" rx="187.367" ry="18"/>
<text text-anchor="middle" x="359" y="-176.3" font-family="Times,serif" font-size="14.00" fill="gray">\Illuminate\Auth\Reminders\RemindableInterface</text>
</g>
<!-- \\User&#45;&gt;\\Illuminate\\Auth\\Reminders\\RemindableInterface -->
<g id="edge4" class="edge"><title>\\User&#45;&gt;\\Illuminate\\Auth\\Reminders\\RemindableInterface</title>
<path fill="none" stroke="black" stroke-dasharray="1,5" d="M646.803,-548.64C636.413,-544.469 625.241,-538.192 618,-529 527.256,-413.803 653.55,-306.689 546,-207 540.774,-202.156 535.087,-197.943 529.055,-194.287"/>
<polygon fill="none" stroke="black" points="530.436,-191.052 519.983,-189.32 527.074,-197.193 530.436,-191.052"/>
</g>
<!-- \\UserResponse -->
<g id="node3" class="node"><title>\\UserResponse</title>
<polygon fill="none" stroke="black" points="723,-736 625,-736 625,-700 723,-700 723,-736"/>
<text text-anchor="middle" x="674" y="-715.2" font-family="Courier,monospace" font-size="11.00">UserResponse</text>
</g>
<!-- \\UserResponse&#45;&gt;\\Eloquent -->
<g id="edge5" class="edge"><title>\\UserResponse&#45;&gt;\\Eloquent</title>
<path fill="none" stroke="black" d="M626.857,-699.804C623.536,-697.223 620.513,-694.301 618,-691 513.624,-553.874 671.989,-427.578 546,-310 509.983,-276.387 451.449,-274.855 409.666,-279.204"/>
<polygon fill="none" stroke="black" points="409.213,-275.733 399.694,-280.385 410.037,-282.684 409.213,-275.733"/>
</g>
<!-- \\Error -->
<g id="node4" class="node"><title>\\Error</title>
<polygon fill="none" stroke="black" points="701,-844 647,-844 647,-808 701,-808 701,-844"/>
<text text-anchor="middle" x="674" y="-823.2" font-family="Courier,monospace" font-size="11.00">Error</text>
</g>
<!-- \\HomeController -->
<g id="node5" class="node"><title>\\HomeController</title>
<polygon fill="none" stroke="black" points="729.5,-1006 618.5,-1006 618.5,-970 729.5,-970 729.5,-1006"/>
<text text-anchor="middle" x="674" y="-985.2" font-family="Courier,monospace" font-size="11.00">HomeController</text>
</g>
<!-- \\HomeController&#45;&gt;\\BaseController -->
<g id="edge6" class="edge"><title>\\HomeController&#45;&gt;\\BaseController</title>
<path fill="none" stroke="black" d="M618.48,-983.297C564.532,-978.643 481.95,-971.52 424.708,-966.582"/>
<polygon fill="none" stroke="black" points="424.946,-963.09 414.683,-965.717 424.345,-970.064 424.946,-963.09"/>
</g>
<!-- \\keyState -->
<g id="node6" class="node"><title>\\keyState</title>
<polygon fill="none" stroke="black" points="709.5,-628 638.5,-628 638.5,-592 709.5,-592 709.5,-628"/>
<text text-anchor="middle" x="674" y="-607.2" font-family="Courier,monospace" font-size="11.00">keyState</text>
</g>
<!-- \\keyState&#45;&gt;\\Eloquent -->
<g id="edge7" class="edge"><title>\\keyState&#45;&gt;\\Eloquent</title>
<path fill="none" stroke="black" d="M638.401,-598.598C630.784,-594.69 623.391,-589.584 618,-583 538.499,-485.916 640.723,-392.3 546,-310 509.229,-278.052 451.801,-275.961 410.483,-279.723"/>
<polygon fill="none" stroke="black" points="409.926,-276.263 400.348,-280.792 410.66,-283.224 409.926,-276.263"/>
</g>
<!-- \\keyState&#45;&gt;\\Illuminate\\Auth\\UserInterface -->
<g id="edge8" class="edge"><title>\\keyState&#45;&gt;\\Illuminate\\Auth\\UserInterface</title>
<path fill="none" stroke="black" stroke-dasharray="1,5" d="M638.223,-598.741C630.612,-594.828 623.266,-589.685 618,-583 527.256,-467.803 653.55,-360.689 546,-261 529.323,-245.542 507.943,-236.499 485.655,-231.524"/>
<polygon fill="none" stroke="black" points="486.2,-228.065 475.714,-229.575 484.854,-234.934 486.2,-228.065"/>
</g>
<!-- \\keyState&#45;&gt;\\Illuminate\\Auth\\Reminders\\RemindableInterface -->
<g id="edge9" class="edge"><title>\\keyState&#45;&gt;\\Illuminate\\Auth\\Reminders\\RemindableInterface</title>
<path fill="none" stroke="black" stroke-dasharray="1,5" d="M638.362,-599.001C630.652,-595.068 623.227,-589.85 618,-583 514.782,-447.736 668.991,-324.572 546,-207 540.929,-202.152 535.398,-197.928 529.519,-194.258"/>
<polygon fill="none" stroke="black" points="531.101,-191.132 520.672,-189.267 527.662,-197.229 531.101,-191.132"/>
</g>
<!-- \\Question -->
<g id="node7" class="node"><title>\\Question</title>
<polygon fill="none" stroke="black" points="709.5,-898 638.5,-898 638.5,-862 709.5,-862 709.5,-898"/>
<text text-anchor="middle" x="674" y="-877.2" font-family="Courier,monospace" font-size="11.00">Question</text>
</g>
<!-- \\Question&#45;&gt;\\Eloquent -->
<g id="edge10" class="edge"><title>\\Question&#45;&gt;\\Eloquent</title>
<path fill="none" stroke="black" d="M638.369,-869.353C630.563,-865.399 623.09,-860.083 618,-853 475.929,-655.31 719.351,-480.925 546,-310 510.706,-275.2 451.497,-274.042 409.367,-278.801"/>
<polygon fill="none" stroke="black" points="408.793,-275.346 399.317,-280.084 409.679,-282.29 408.793,-275.346"/>
</g>
<!-- \\Quiz -->
<g id="node8" class="node"><title>\\Quiz</title>
<polygon fill="none" stroke="black" points="701,-790 647,-790 647,-754 701,-754 701,-790"/>
<text text-anchor="middle" x="674" y="-769.2" font-family="Courier,monospace" font-size="11.00">Quiz</text>
</g>
<!-- \\Quiz&#45;&gt;\\Eloquent -->
<g id="edge11" class="edge"><title>\\Quiz&#45;&gt;\\Eloquent</title>
<path fill="none" stroke="black" d="M646.833,-764.946C636.32,-760.81 625.044,-754.476 618,-745 501.091,-587.729 687.738,-445.323 546,-310 510.367,-275.98 451.763,-274.522 409.858,-279"/>
<polygon fill="none" stroke="black" points="409.361,-275.534 399.856,-280.214 410.205,-282.484 409.361,-275.534"/>
</g>
<!-- \\TestCase -->
<g id="node9" class="node"><title>\\TestCase</title>
<polygon fill="none" stroke="black" points="709.5,-520 638.5,-520 638.5,-484 709.5,-484 709.5,-520"/>
<text text-anchor="middle" x="674" y="-499.2" font-family="Courier,monospace" font-size="11.00">TestCase</text>
</g>
<!-- \\Illuminate\\Foundation\\Testing\\TestCase -->
<g id="node18" class="node"><title>\\Illuminate\\Foundation\\Testing\\TestCase</title>
<ellipse fill="none" stroke="black" cx="359" cy="-126" rx="155.173" ry="18"/>
<text text-anchor="middle" x="359" y="-122.3" font-family="Times,serif" font-size="14.00" fill="gray">\Illuminate\Foundation\Testing\TestCase</text>
</g>
<!-- \\TestCase&#45;&gt;\\Illuminate\\Foundation\\Testing\\TestCase -->
<g id="edge12" class="edge"><title>\\TestCase&#45;&gt;\\Illuminate\\Foundation\\Testing\\TestCase</title>
<path fill="none" stroke="black" d="M638.223,-490.741C630.612,-486.828 623.266,-481.685 618,-475 527.256,-359.803 653.55,-252.689 546,-153 537.847,-145.443 528.569,-139.419 518.611,-134.654"/>
<polygon fill="none" stroke="black" points="519.855,-131.378 509.287,-130.624 517.078,-137.804 519.855,-131.378"/>
</g>
<!-- \\Dbconf -->
<g id="node10" class="node"><title>\\Dbconf</title>
<polygon fill="none" stroke="black" points="702.5,-412 645.5,-412 645.5,-376 702.5,-376 702.5,-412"/>
<text text-anchor="middle" x="674" y="-391.2" font-family="Courier,monospace" font-size="11.00">Dbconf</text>
</g>
<!-- \\Illuminate\\Database\\Migrations\\Migration -->
<g id="node19" class="node"><title>\\Illuminate\\Database\\Migrations\\Migration</title>
<ellipse fill="none" stroke="black" cx="359" cy="-72" rx="163.571" ry="18"/>
<text text-anchor="middle" x="359" y="-68.3" font-family="Times,serif" font-size="14.00" fill="gray">\Illuminate\Database\Migrations\Migration</text>
</g>
<!-- \\Dbconf&#45;&gt;\\Illuminate\\Database\\Migrations\\Migration -->
<g id="edge13" class="edge"><title>\\Dbconf&#45;&gt;\\Illuminate\\Database\\Migrations\\Migration</title>
<path fill="none" stroke="black" d="M645.29,-385.783C635.424,-381.601 625.029,-375.543 618,-367 539.64,-271.757 638.214,-180.903 546,-99 538.667,-92.4867 530.491,-87.1307 521.772,-82.7501"/>
<polygon fill="none" stroke="black" points="523.054,-79.4879 512.502,-78.5304 520.154,-85.8589 523.054,-79.4879"/>
</g>
<!-- \\Passcode -->
<g id="node11" class="node"><title>\\Passcode</title>
<polygon fill="none" stroke="black" points="709.5,-466 638.5,-466 638.5,-430 709.5,-430 709.5,-466"/>
<text text-anchor="middle" x="674" y="-445.2" font-family="Courier,monospace" font-size="11.00">Passcode</text>
</g>
<!-- \\DatabaseSeeder -->
<g id="node12" class="node"><title>\\DatabaseSeeder</title>
<polygon fill="none" stroke="black" points="729.5,-358 618.5,-358 618.5,-322 729.5,-322 729.5,-358"/>
<text text-anchor="middle" x="674" y="-337.2" font-family="Courier,monospace" font-size="11.00">DatabaseSeeder</text>
</g>
<!-- \\Seeder -->
<g id="node20" class="node"><title>\\Seeder</title>
<ellipse fill="none" stroke="black" cx="359" cy="-18" rx="37.0935" ry="18"/>
<text text-anchor="middle" x="359" y="-14.3" font-family="Times,serif" font-size="14.00" fill="gray">\Seeder</text>
</g>
<!-- \\DatabaseSeeder&#45;&gt;\\Seeder -->
<g id="edge14" class="edge"><title>\\DatabaseSeeder&#45;&gt;\\Seeder</title>
<path fill="none" stroke="black" d="M671.172,-321.751C664.852,-269.117 638.918,-116.257 546,-45 505.864,-14.221 446.14,-10.8162 405.264,-12.9201"/>
<polygon fill="none" stroke="black" points="404.797,-9.44288 395.043,-13.5803 405.248,-16.4283 404.797,-9.44288"/>
</g>
<!-- \\Logs -->
<g id="node13" class="node"><title>\\Logs</title>
<polygon fill="none" stroke="black" points="701,-682 647,-682 647,-646 701,-646 701,-682"/>
<text text-anchor="middle" x="674" y="-661.2" font-family="Courier,monospace" font-size="11.00">Logs</text>
</g>
<!-- \\Logs&#45;&gt;\\Eloquent -->
<g id="edge15" class="edge"><title>\\Logs&#45;&gt;\\Eloquent</title>
<path fill="none" stroke="black" d="M646.788,-656.651C636.396,-652.483 625.226,-646.203 618,-637 526.104,-519.949 656.305,-409.893 546,-310 509.671,-277.101 451.644,-275.316 410.062,-279.411"/>
<polygon fill="none" stroke="black" points="409.411,-275.962 399.868,-280.563 410.198,-282.918 409.411,-275.962"/>
</g>
<!-- \\Controller -->
<g id="node21" class="node"><title>\\Controller</title>
<ellipse fill="none" stroke="black" cx="50" cy="-961" rx="49.2915" ry="18"/>
<text text-anchor="middle" x="50" y="-957.3" font-family="Times,serif" font-size="14.00" fill="gray">\Controller</text>
</g>
<!-- \\BaseController&#45;&gt;\\Controller -->
<g id="edge16" class="edge"><title>\\BaseController&#45;&gt;\\Controller</title>
<path fill="none" stroke="black" d="M303.468,-961C248.966,-961 165.446,-961 109.565,-961"/>
<polygon fill="none" stroke="black" points="109.465,-957.5 99.4651,-961 109.465,-964.5 109.465,-957.5"/>
</g>
</g>
</svg>
